<?xml version="1.0" encoding="UTF-8"?>
<!-- Generator: visioncortex VTracer 0.6.4 -->
<svg version="1.1" xmlns="http://www.w3.org/2000/svg" width="400" height="400">
<path d="M0 0 C3.43 0 6.86 -0.04 10.29 -0.08 C30.14 -0.19 49.42 2.66 68.16 9.38 C69.14 9.72 70.13 10.06 71.14 10.41 C106.9 23.03 139.37 45.3 162.6 75.5 C163.3 76.38 164 77.26 164.71 78.17 C191.03 112.07 205.42 154.09 205.17 196.93 C205.16 200.24 205.19 203.54 205.23 206.84 C205.3 226.43 202.34 245.58 195.72 264.06 C195.38 265.05 195.04 266.03 194.69 267.05 C187.96 286.12 179.07 303.62 166.88 319.8 C166.03 320.92 165.19 322.06 164.36 323.19 C143.74 351.34 114.76 373.14 82.6 386.5 C81.88 386.8 81.16 387.1 80.42 387.41 C57.2 396.98 34.1 400.72 9.15 400.85 C6.85 400.87 4.56 400.89 2.26 400.93 C-19.37 401.29 -39.82 398.44 -60.28 391.25 C-61.96 390.67 -61.96 390.67 -63.67 390.08 C-90.82 380.51 -114.53 365.25 -135.4 345.5 C-136.33 344.63 -137.27 343.77 -138.23 342.87 C-164.54 317.85 -182.6 283.47 -191.4 248.5 C-191.57 247.84 -191.74 247.18 -191.91 246.5 C-195.41 232.45 -196.06 218.78 -195.98 204.33 C-195.96 200.7 -196 197.08 -196.04 193.45 C-196.2 142.04 -172.8 92.93 -136.96 56.69 C-125.88 45.73 -113.5 36.87 -100.4 28.5 C-99.53 27.94 -98.66 27.37 -97.76 26.79 C-80.29 15.86 -60.02 8.71 -40.01 4.1 C-38.13 3.67 -36.26 3.2 -34.4 2.71 C-22.98 0 -11.68 -0.02 0 0 Z " fill="#0457EE" transform="translate(195.40234375,-0.5009765625)"/>
<path d="M0 0 C16.17 0 32.34 0 49 0 C56.66 15.33 63.84 30.78 70.82 46.41 C74.99 55.73 79.37 64.9 84 74 C84.81 75.62 85.63 77.25 86.44 78.88 C86.95 79.91 87.47 80.94 88 82 C88.38 81.18 88.76 80.36 89.16 79.52 C92.55 72.24 95.95 64.96 99.35 57.68 C101.04 54.05 102.74 50.42 104.43 46.79 C111.83 30.94 119.85 15.48 128 0 C144.17 0 160.34 0 177 0 C178.19 14.25 178.19 14.25 178.61 19.38 C179.36 28.35 180.11 37.32 180.87 46.3 C182.15 61.59 183.43 76.88 184.69 92.18 C184.89 94.71 185.1 97.23 185.31 99.76 C185.9 106.9 186.48 114.04 187.05 121.18 C187.22 123.35 187.4 125.52 187.58 127.7 C188.68 141.17 189.23 154.49 189 168 C183.84 168.1 178.68 168.17 173.52 168.22 C171.77 168.24 170.01 168.27 168.26 168.3 C165.73 168.35 163.21 168.37 160.68 168.39 C159.9 168.41 159.12 168.43 158.32 168.45 C153.08 168.46 150.17 167.44 146 164 C144.57 162 144.57 162 143.69 160 C143.23 159.01 143.23 159.01 142.76 158 C141.18 153.84 140.82 150.04 140.64 145.59 C140.59 144.29 140.54 142.98 140.48 141.64 C140.44 140.6 140.44 140.6 140.4 139.53 C140.32 137.34 140.22 135.14 140.13 132.94 C139.87 126.69 139.62 120.44 139.38 114.19 C139.2 109.62 139.01 105.06 138.82 100.49 C138.77 99.39 138.77 99.39 138.72 98.26 C138.25 87.45 137.51 76.72 136 66 C135.27 67.82 135.27 67.82 134.53 69.67 C121.86 101.35 121.86 101.35 120.93 103.67 C120.3 105.24 119.68 106.81 119.06 108.38 C116.43 115.03 113.61 121.58 110.75 128.12 C109.18 131.71 107.62 135.3 106 139 C93.79 139 81.58 139 69 139 C56.26 108.28 56.26 108.28 52.18 97.95 C50.84 94.61 49.42 91.3 48 88 C45.52 82.14 43.36 76.2 41.37 70.16 C41.02 69.12 41.02 69.12 40.67 68.06 C40.11 66.38 39.56 64.69 39 63 C38.95 64.16 38.95 64.16 38.9 65.34 C38.58 72.75 38.26 80.16 37.93 87.57 C37.76 91.38 37.6 95.18 37.43 98.99 C36.81 113.53 36.18 128.08 35.09 142.59 C34.99 144 34.99 144 34.89 145.43 C34.32 152.42 33.57 160.18 28 165 C23.25 168.17 19.35 168.13 13.83 168.1 C12.64 168.1 12.64 168.1 11.42 168.09 C8.89 168.09 6.35 168.08 3.81 168.06 C2.09 168.06 0.37 168.05 -1.35 168.05 C-5.57 168.04 -9.78 168.02 -14 168 C-14.18 158.45 -13.62 149.01 -12.88 139.5 C-12.81 138.69 -12.75 137.87 -12.69 137.04 C-11.31 118.96 -9.72 100.9 -8.14 82.84 C-7.94 80.58 -7.74 78.32 -7.54 76.07 C-5.07 47.82 -5.07 47.82 -3.41 34.4 C-2.79 29.26 -2.35 24.1 -1.94 18.94 C-1.78 17.03 -1.62 15.12 -1.46 13.21 C-1.4 12.4 -1.33 11.59 -1.27 10.75 C-0.92 7.16 -0.45 3.58 0 0 Z " fill="#FBFDFD" transform="translate(111,116)"/>
<path d="M0 0 C0 0.66 0 1.32 0 2 C-1.11 2.11 -2.23 2.22 -3.38 2.33 C-23.15 4.19 -23.15 4.19 -42 10 C-42 10.33 -42 10.66 -42 11 C-45.3 11.66 -48.6 12.32 -52 13 C-52 13.66 -52 14.32 -52 15 C-53.65 14.67 -55.3 14.34 -57 14 C-57.33 14.99 -57.66 15.98 -58 17 C-58.99 17 -59.98 17 -61 17 C-61 17.66 -61 18.32 -61 19 C-62.32 19.33 -63.64 19.66 -65 20 C-64.5 20.99 -64.5 20.99 -64 22 C-64.56 22.04 -65.11 22.07 -65.69 22.11 C-66.83 22.21 -66.83 22.21 -68 22.31 C-68.74 22.37 -69.48 22.43 -70.25 22.49 C-77.46 23.83 -83.47 27.18 -89.62 31 C-90.41 31.48 -91.19 31.97 -91.99 32.46 C-104.07 40.05 -114.69 49.19 -125 59 C-126.06 59.98 -126.06 59.98 -127.14 60.98 C-135.84 69.28 -142.87 79.36 -150 89 C-150 83.46 -145.27 79.25 -142 75 C-141.34 74.13 -140.67 73.26 -139.99 72.36 C-125.73 54.25 -108.31 40.34 -89 28 C-88.13 27.44 -87.26 26.87 -86.36 26.29 C-68.01 14.81 -46.95 7.91 -26 3 C-25.3 2.83 -24.61 2.67 -23.89 2.5 C-15.84 0.63 -8.27 -0.46 0 0 Z " fill="#ACCCF4" transform="translate(184,0)"/>
<path d="M0 0 C2 1 2 1 3.25 4.24 C3.7 5.59 4.13 6.95 4.56 8.31 C4.89 9.33 4.89 9.33 5.23 10.37 C6.26 13.55 7.25 16.73 8 20 C6.35 20.66 4.7 21.32 3 22 C2.94 23.11 2.88 24.22 2.82 25.36 C2.73 26.82 2.65 28.29 2.56 29.75 C2.5 30.84 2.5 30.84 2.44 31.96 C2.11 37.57 2.11 37.57 1.5 39.93 C0.92 42.34 0.79 44.6 0.68 47.09 C0.64 48.09 0.6 49.09 0.56 50.13 C0.52 51.2 0.48 52.27 0.44 53.38 C0.39 54.48 0.35 55.58 0.3 56.72 C0.1 62.27 -0.02 67.81 0.04 73.37 C0.06 74.86 0.06 74.86 0.08 76.37 C0.11 78.25 0.15 80.13 0.21 82.01 C0.3 86.99 0.03 89.85 -3 94 C-3.61 95.59 -4.18 97.19 -4.69 98.81 C-4.94 99.6 -5.19 100.39 -5.45 101.21 C-5.63 101.8 -5.81 102.39 -6 103 C-8.47 103.5 -8.47 103.5 -11 104 C-10.22 102.97 -9.43 101.94 -8.62 100.88 C-0.99 88.36 -3.13 68.36 -2.44 54.19 C-2.31 51.72 -2.18 49.25 -2.06 46.78 C-1.26 31.19 -0.59 15.6 0 0 Z " fill="#2763CB" transform="translate(149,178)"/>
<path d="M0 0 C0.33 0 0.66 0 1 0 C2.66 8.78 3.52 17.47 4.06 26.38 C4.22 28.82 4.37 31.27 4.54 33.71 C4.6 34.78 4.67 35.84 4.73 36.94 C4.96 40.01 4.96 40.01 5.51 43.06 C5.98 45.86 6.2 48.56 6.32 51.4 C6.36 52.37 6.4 53.34 6.44 54.35 C6.48 55.35 6.52 56.35 6.56 57.38 C6.61 58.4 6.65 59.42 6.69 60.47 C6.8 62.98 6.9 65.49 7 68 C7.66 68.33 8.32 68.66 9 69 C8.99 69.75 8.99 70.49 8.98 71.26 C8.96 74.63 8.95 78 8.94 81.38 C8.93 82.55 8.92 83.73 8.91 84.94 C8.91 86.06 8.91 87.18 8.9 88.34 C8.9 89.37 8.89 90.41 8.89 91.48 C8.83 94 8.83 94 10 96 C10.25 98.6 10.45 101.18 10.61 103.78 C10.65 104.55 10.7 105.32 10.75 106.11 C10.85 107.74 10.95 109.37 11.04 110.99 C11.19 113.49 11.35 115.99 11.51 118.48 C11.61 120.06 11.7 121.64 11.79 123.22 C11.84 123.97 11.89 124.72 11.95 125.49 C12.05 127.32 12.03 129.16 12 131 C10 133 10 133 6.74 133.23 C5.36 133.23 3.97 133.22 2.59 133.2 C1.49 133.19 1.49 133.19 0.37 133.19 C-1.96 133.18 -4.29 133.15 -6.62 133.12 C-8.21 133.11 -9.79 133.11 -11.37 133.1 C-15.24 133.08 -19.12 133.04 -23 133 C-23 132.67 -23 132.34 -23 132 C-12.44 132 -1.88 132 9 132 C7.85 110.07 6.28 88.2 4.5 66.31 C4.45 65.65 4.39 64.98 4.34 64.3 C2.92 46.78 2.92 46.78 1.4 29.27 C1.31 28.22 1.22 27.18 1.12 26.1 C0.95 24.18 0.77 22.25 0.59 20.33 C-0.02 13.54 -0.24 6.83 0 0 Z " fill="#1E5DCD" transform="translate(291,152)"/>
<path d="M0 0 C3.54 3.25 4.93 6.87 6.75 11.25 C7.1 12.08 7.44 12.92 7.8 13.78 C16.92 36.3 23.07 59.61 22 84 C21.34 84 20.68 84 20 84 C19.8 81.95 19.61 79.9 19.41 77.85 C19.28 77.24 19.14 76.63 19 76 C18.34 75.67 17.68 75.34 17 75 C17.33 72.69 17.66 70.38 18 68 C17.34 68 16.68 68 16 68 C16.02 66.94 16.05 65.88 16.07 64.78 C16.18 57.53 16.28 50.96 14 44 C12.18 37.7 10.57 31.37 9 25 C8.34 25 7.68 25 7 25 C7 23.35 7 21.7 7 20 C6.34 20 5.68 20 5 20 C5 18.35 5 16.7 5 15 C4.01 14.67 3.02 14.34 2 14 C1.94 13.32 1.88 12.65 1.82 11.95 C1.73 11.06 1.65 10.17 1.56 9.25 C1.48 8.37 1.4 7.49 1.32 6.58 C1.04 4.31 0.61 2.2 0 0 Z " fill="#77A3E4" transform="translate(378,108)"/>
<path d="M0 0 C0.33 0 0.66 0 1 0 C1.08 0.68 1.15 1.36 1.23 2.06 C6.2 46.45 20.5 85.97 50 120 C50.84 120.97 51.68 121.94 52.54 122.94 C54.66 125.33 56.81 127.68 59 130 C59.64 130.68 60.28 131.36 60.94 132.07 C66.23 137.53 72.05 142.27 78 147 C70.19 147 61.53 135.81 56.12 130.5 C25.86 100.17 0.14 53.24 -0.27 9.54 C-0.24 6.36 -0.15 3.18 0 0 Z " fill="#CDE7FC" transform="translate(0,211)"/>
<path d="M0 0 C0 0.99 0 1.98 0 3 C-0.66 3 -1.32 3 -2 3 C-2 5.64 -2 8.28 -2 11 C-3.51 9.04 -4.89 7.22 -6 5 C-30.25 4.5 -30.25 4.5 -55 4 C-55.33 9.28 -55.66 14.56 -56 20 C-56.34 24.17 -56.69 28.33 -57.06 32.5 C-57.15 33.52 -57.24 34.55 -57.34 35.61 C-57.56 38.07 -57.78 40.54 -58 43 C-58.33 43 -58.66 43 -59 43 C-59.03 38.88 -59.05 34.75 -59.06 30.62 C-59.07 29.45 -59.08 28.27 -59.09 27.06 C-59.09 25.94 -59.09 24.82 -59.1 23.66 C-59.1 22.63 -59.11 21.59 -59.11 20.52 C-59 18 -59 18 -58 16 C-58.66 16 -59.32 16 -60 16 C-60.66 12.7 -61.32 9.4 -62 6 C-61.34 6 -60.68 6 -60 6 C-60 5.34 -60 4.68 -60 4 C-56.85 2.16 -54.52 1.74 -50.9 1.7 C-49.37 1.67 -49.37 1.67 -47.82 1.65 C-46.73 1.64 -45.65 1.63 -44.52 1.62 C-42.84 1.6 -42.84 1.6 -41.12 1.57 C-37.54 1.52 -33.96 1.48 -30.38 1.44 C-26.78 1.39 -23.19 1.35 -19.6 1.29 C-17.37 1.26 -15.13 1.24 -12.9 1.21 C-11.89 1.2 -10.88 1.19 -9.85 1.17 C-8.51 1.16 -8.51 1.16 -7.15 1.14 C-4.41 0.96 -2.86 0 0 0 Z " fill="#2063D7" transform="translate(166,112)"/>
<path d="M0 0 C37.63 -2.75 80.84 15.8 110 39 C110.33 39.66 110.66 40.32 111 41 C106.96 39.59 103.91 37.64 100.5 35.06 C92.97 29.39 92.97 29.39 84 27 C84 26.34 84 25.68 84 25 C82.68 25 81.36 25 80 25 C80 24.34 80 23.68 80 23 C78.8 22.71 77.61 22.42 76.38 22.12 C72.85 21.25 69.43 20.2 66 19 C66 18.34 66 17.68 66 17 C64.38 16.64 62.75 16.29 61.12 15.94 C60.22 15.74 59.32 15.54 58.38 15.34 C55.99 14.77 55.99 14.77 54 16 C54 15.34 54 14.68 54 14 C52.68 13.67 51.36 13.34 50 13 C50 12.34 50 11.68 50 11 C49.34 11 48.68 11 48 11 C48 10.34 48 9.68 48 9 C46.74 8.75 45.48 8.51 44.19 8.25 C40.7 7.56 37.24 6.83 33.77 6.05 C22.55 3.53 11.46 1.97 0 1 C0 0.67 0 0.34 0 0 Z " fill="#B1CEF4" transform="translate(211,0)"/>
<path d="M0 0 C2 0 2 0 3.62 1.5 C4.08 2 4.53 2.49 5 3 C5.33 2.34 5.66 1.68 6 1 C12.78 0.81 19.56 0.63 26.34 0.46 C28.65 0.4 30.96 0.34 33.27 0.28 C36.58 0.18 39.89 0.1 43.21 0.02 C44.24 -0.01 45.28 -0.04 46.34 -0.07 C47.3 -0.09 48.26 -0.11 49.25 -0.14 C50.1 -0.16 50.95 -0.18 51.82 -0.2 C54 0 54 0 57 2 C57.69 5.62 57.69 5.62 58 9 C58.66 8.34 59.32 7.68 60 7 C60.5 10.96 60.5 10.96 61 15 C60.34 15 59.68 15 59 15 C59 22.92 59 30.84 59 39 C58.67 39 58.34 39 58 39 C57.66 36 57.32 33 57 30 C56.9 29.18 56.81 28.36 56.71 27.52 C55.83 19.22 56 11.51 56 3 C39.83 3.33 23.66 3.66 7 4 C4.36 9.28 1.72 14.56 -1 20 C-2.11 16.67 -1.85 15.57 -1.06 12.25 C-0.14 8.03 0.19 4.31 0 0 Z " fill="#2567D6" transform="translate(232,113)"/>
<path d="M0 0 C0.33 0 0.66 0 1 0 C1.8 8.52 2.27 17.04 2.6 25.59 C2.69 27.79 2.78 29.99 2.87 32.19 C3.12 38.43 3.38 44.68 3.62 50.93 C3.77 54.77 3.93 58.62 4.09 62.46 C4.15 63.92 4.21 65.37 4.26 66.82 C4.55 74.41 5.03 81.63 7 89 C6.01 89 5.02 89 4 89 C3.67 88.01 3.34 87.02 3 86 C1.51 86.5 1.51 86.5 0 87 C-0.08 82.59 0.05 78.38 0.56 74 C0.98 69.68 0.89 65.64 0.53 61.31 C-0.34 49.23 -0.11 37.11 -0.06 25 C-0.06 22.57 -0.05 20.14 -0.05 17.7 C-0.04 11.8 -0.02 5.9 0 0 Z " fill="#1A5FD5" transform="translate(248,188)"/>
<path d="M0 0 C2.52 0.12 5.04 0.24 7.56 0.38 C8.62 0.42 8.62 0.42 9.7 0.47 C14.4 0.73 18.45 1.69 23 3 C26.28 3.24 26.28 3.24 29.44 3.12 C31.01 3.1 31.01 3.1 32.62 3.07 C33.41 3.05 34.19 3.02 35 3 C34.34 3.33 33.68 3.66 33 4 C33 4.66 33 5.32 33 6 C36.3 5.67 39.6 5.34 43 5 C42.67 5.66 42.34 6.32 42 7 C42.59 7.05 43.18 7.1 43.79 7.15 C48.19 7.56 51.97 8.05 56 10 C56 10.33 56 10.66 56 11 C36.99 12.39 17.83 7.24 0 1 C0 0.67 0 0.34 0 0 Z " fill="#6C9DE8" transform="translate(133,389)"/>
<path d="M0 0 C0.33 0 0.66 0 1 0 C2.1 19.08 -1.6 38.02 -8 56 C-8.66 56 -9.32 56 -10 56 C-10.14 56.54 -10.27 57.07 -10.41 57.62 C-13.61 69.29 -18.76 80.65 -25 91 C-25.33 91 -25.66 91 -26 91 C-26 88.36 -26 85.72 -26 83 C-24.02 82.01 -24.02 82.01 -22 81 C-22 79.35 -22 77.7 -22 76 C-21.01 75.5 -21.01 75.5 -20 75 C-19.81 73.36 -19.81 73.36 -19.62 71.69 C-18.91 67.47 -17.89 66.89 -15 64 C-14.67 60.83 -14.67 60.83 -15 58 C-14.01 58 -13.02 58 -12 58 C-12.33 56.02 -12.66 54.04 -13 52 C-12.34 52 -11.68 52 -11 52 C-10.34 50.68 -9.68 49.36 -9 48 C-8.34 48 -7.68 48 -7 48 C-6.84 47.04 -6.84 47.04 -6.67 46.05 C-5.79 41.07 -4.79 36.2 -3.5 31.31 C-1.05 21.09 -0.71 10.46 0 0 Z " fill="#98BDF2" transform="translate(399,208)"/>
<path d="M0 0 C0.33 0 0.66 0 1 0 C1.34 5.54 0.31 9 -2 14 C-2.19 14.95 -2.37 15.9 -2.56 16.88 C-2.71 17.58 -2.85 18.28 -3 19 C-3.66 19.33 -4.32 19.66 -5 20 C-5.68 21.89 -5.68 21.89 -6.12 24.06 C-6.29 24.8 -6.46 25.53 -6.63 26.29 C-6.75 26.85 -6.88 27.42 -7 28 C-7.66 28 -8.32 28 -9 28 C-8.81 29.24 -8.63 30.47 -8.44 31.75 C-8.05 34.83 -8.01 37.03 -9 40 C-9.35 42 -9.68 44 -10 46 C-11.67 46 -13.33 46 -15 46 C-15.33 47 -15.65 48 -15.99 49.03 C-16.43 50.33 -16.87 51.63 -17.31 52.94 C-17.53 53.6 -17.74 54.26 -17.96 54.94 C-18.55 56.66 -19.27 58.33 -20 60 C-21.49 60.5 -21.49 60.5 -23 61 C-21.05 54.91 -18.85 48.98 -16.44 43.06 C-13.09 34.78 -9.83 26.46 -6.62 18.12 C-6.2 17.01 -5.77 15.9 -5.33 14.76 C-4.72 13.18 -4.72 13.18 -4.1 11.57 C-3.74 10.64 -3.39 9.71 -3.02 8.75 C-1.95 5.85 -0.96 2.94 0 0 Z " fill="#0657E7" transform="translate(247,178)"/>
<path d="M0 0 C16.17 0 32.34 0 49 0 C54 9 54 9 54 12 C53.01 12.33 52.02 12.66 51 13 C51 10.69 51 8.38 51 6 C50.34 6 49.68 6 49 6 C49 4.68 49 3.36 49 2 C33.49 2 17.98 2 2 2 C1.42 10.18 1.42 10.18 0.86 18.36 C0.79 19.38 0.71 20.39 0.63 21.43 C0.56 22.48 0.49 23.52 0.41 24.59 C0.28 25.39 0.14 26.18 0 27 C-0.66 27.33 -1.32 27.66 -2 28 C-2.33 18.38 -1.21 9.71 0 0 Z " fill="#D9EEFE" transform="translate(111,116)"/>
<path d="M0 0 C0.33 0.66 0.66 1.32 1 2 C-0.15 4.65 -1.36 7.22 -2.62 9.81 C-6.4 17.8 -8.66 25.7 -10.36 34.36 C-10.63 35.64 -10.63 35.64 -10.89 36.94 C-11.04 37.7 -11.18 38.46 -11.33 39.24 C-11.66 40.11 -11.66 40.11 -12 41 C-13.48 41.5 -13.48 41.5 -15 42 C-15.05 42.58 -15.1 43.17 -15.15 43.77 C-15.57 48.39 -16.13 52.93 -16.94 57.5 C-18.35 65.62 -19.14 73.81 -20 82 C-20.33 82 -20.66 82 -21 82 C-22.48 55.68 -14.63 22.31 0 0 Z " fill="#B2D0F4" transform="translate(21,108)"/>
<path d="M0 0 C0.66 0 1.32 0 2 0 C1.55 1.42 1.09 2.83 0.62 4.25 C0.24 5.43 0.24 5.43 -0.15 6.64 C-1 9 -1 9 -3 13 C-15.21 13 -27.42 13 -40 13 C-40.99 10.03 -41.98 7.06 -43 4 C-42.34 4 -41.68 4 -41 4 C-39.98 5.66 -38.98 7.32 -38 9 C-35.32 10.34 -33.25 10.13 -30.26 10.13 C-29.11 10.13 -27.96 10.14 -26.78 10.14 C-24.97 10.13 -24.97 10.13 -23.12 10.12 C-21.33 10.13 -21.33 10.13 -19.5 10.14 C-18.34 10.14 -17.19 10.13 -16.01 10.13 C-14.95 10.13 -13.9 10.13 -12.81 10.13 C-10.35 10.02 -8.35 9.66 -6 9 C-5.34 9 -4.68 9 -4 9 C-3.71 7.89 -3.42 6.77 -3.12 5.62 C-2 2 -2 2 0 0 Z " fill="#E8FBFD" transform="translate(220,242)"/>
<path d="M0 0 C0.66 0 1.32 0 2 0 C0.18 6.27 -2.31 12.09 -5.06 18 C-5.42 18.77 -5.77 19.53 -6.13 20.32 C-8.76 25.88 -8.76 25.88 -11 27 C-11.87 25.42 -12.72 23.84 -13.56 22.25 C-14.04 21.37 -14.51 20.49 -15 19.58 C-16.08 16.79 -16.07 15.73 -15 13 C-14.4 13.19 -13.8 13.37 -13.19 13.56 C-10.84 14.22 -10.84 14.22 -8 13 C-7.27 10.98 -7.27 10.98 -7 9 C-7 10.32 -7 11.64 -7 13 C-6.34 13 -5.68 13 -5 13 C-4.88 11.7 -4.75 10.4 -4.62 9.06 C-4.41 6.85 -4.41 6.85 -4 5 C-3.34 4.67 -2.68 4.34 -2 4 C-0.87 1.98 -0.87 1.98 0 0 Z " fill="#1457DA" transform="translate(209,172)"/>
<path d="M0 0 C0.99 0.33 1.98 0.66 3 1 C-3.16 5.7 -9.43 10.01 -16.06 14 C-17.04 14.6 -17.04 14.6 -18.05 15.2 C-22.75 18 -22.75 18 -25 18 C-25.33 18.99 -25.66 19.98 -26 21 C-27.99 22.18 -27.99 22.18 -30.59 23.3 C-31.52 23.7 -32.45 24.1 -33.41 24.51 C-34.39 24.92 -35.37 25.33 -36.38 25.75 C-37.35 26.17 -38.32 26.6 -39.32 27.04 C-46.61 30.13 -46.61 30.13 -50 29 C-47.71 28 -45.42 27 -43.12 26 C-42.47 25.71 -41.82 25.43 -41.15 25.13 C-36.23 23 -36.23 23 -34 23 C-34 22.01 -34 21.02 -34 20 C-33.03 19.71 -32.06 19.42 -31.06 19.12 C-27.89 18.36 -27.89 18.36 -27 16 C-24.97 15.16 -22.91 14.53 -20.81 13.88 C-20.21 13.59 -19.62 13.3 -19 13 C-18.67 12.01 -18.34 11.02 -18 10 C-15.67 9.31 -13.34 8.65 -11 8 C-9.98 7.02 -8.98 6.02 -8 5 C-5.31 4.31 -5.31 4.31 -3 4 C-3 3.34 -3 2.68 -3 2 C-2.01 2 -1.02 2 0 2 C0 1.34 0 0.68 0 0 Z " fill="#6899E4" transform="translate(317,359)"/>
<path d="M0 0 C0.33 0 0.66 0 1 0 C0.37 16.47 -1.05 32.84 -2.56 49.25 C-2.8 51.86 -3.04 54.46 -3.27 57.07 C-3.84 63.38 -4.42 69.69 -5 76 C-5.33 76 -5.66 76 -6 76 C-5.88 70.95 -5.76 65.89 -5.63 60.84 C-5.58 59.12 -5.54 57.4 -5.5 55.68 C-5.44 53.21 -5.38 50.74 -5.32 48.27 C-5.3 47.5 -5.28 46.73 -5.27 45.94 C-5.17 42.47 -4.87 39.35 -4 36 C-3.81 34.01 -3.66 32.02 -3.54 30.02 C-3.42 28.27 -3.42 28.27 -3.3 26.49 C-3.14 24.06 -2.99 21.63 -2.84 19.19 C-2.39 12.59 -1.65 6.41 0 0 Z " fill="#2161CE" transform="translate(106,156)"/>
<path d="M0 0 C0.33 0 0.66 0 1 0 C1 1.65 1 3.3 1 5 C1.66 5 2.32 5 3 5 C5.77 16.17 6.35 26.53 6 38 C5.34 38 4.68 38 4 38 C3.8 35.95 3.61 33.9 3.41 31.85 C3.21 30.93 3.21 30.93 3 30 C2.34 29.67 1.68 29.34 1 29 C1.33 26.69 1.66 24.38 2 22 C1.34 22 0.68 22 0 22 C0 14.74 0 7.48 0 0 Z " fill="#1C5FD6" transform="translate(394,154)"/>
<path d="M0 0 C5.48 2.87 9.73 6.17 14.19 10.44 C15.15 11.35 15.15 11.35 16.14 12.28 C20.48 16.44 24.7 20.69 28.81 25.06 C29.31 25.59 29.81 26.11 30.32 26.65 C33.01 29.58 34.79 32.19 36 36 C34.37 35.05 32.75 34.09 31.12 33.12 C30.22 32.59 29.32 32.06 28.38 31.51 C26 30 26 30 24 28 C24 26.68 24 25.36 24 24 C22.02 23.67 20.04 23.34 18 23 C18.66 22.67 19.32 22.34 20 22 C18.59 17.27 15.86 14.61 12.25 11.44 C11.74 10.97 11.22 10.5 10.7 10.02 C8.12 7.7 5.54 5.64 2.61 3.79 C1.75 3.2 0.89 2.61 0 2 C0 1.34 0 0.68 0 0 Z " fill="#A6CAF3" transform="translate(322,41)"/>
<path d="M0 0 C3.62 1.34 6.7 2.98 9.94 5.06 C13.64 7.34 16.57 8.77 21 9 C21 8.34 21 7.68 21 7 C21.66 7 22.32 7 23 7 C22.67 8.32 22.34 9.64 22 11 C24.31 11.33 26.62 11.66 29 12 C29 12.66 29 13.32 29 14 C30.65 14 32.3 14 34 14 C34 14.66 34 15.32 34 16 C34.64 16.12 35.28 16.25 35.94 16.38 C36.96 16.68 36.96 16.68 38 17 C38.5 17.99 38.5 17.99 39 19 C40.64 19.72 42.31 20.39 44 21 C40.5 22.17 39.95 21.84 36.68 20.45 C35.82 20.08 34.96 19.72 34.08 19.34 C33.17 18.94 32.25 18.54 31.31 18.12 C29.91 17.51 29.91 17.51 28.48 16.89 C22.49 14.23 16.66 11.38 10.94 8.19 C10.29 7.83 9.64 7.47 8.98 7.1 C5.5 5.09 2.69 2.98 0 0 Z " fill="#7199E4" transform="translate(89,367)"/>
<path d="M0 0 C5.24 3.49 7.92 8.17 11.12 13.44 C11.65 14.28 12.17 15.13 12.71 16 C13.72 17.62 14.72 19.25 15.7 20.88 C16.74 22.58 17.83 24.25 18.93 25.91 C19.28 26.6 19.64 27.29 20 28 C19.67 28.99 19.34 29.98 19 31 C19 30.34 19 29.68 19 29 C17.68 28.67 16.36 28.34 15 28 C15 27.01 15 26.02 15 25 C14.37 24.91 13.73 24.83 13.08 24.74 C12.39 24.5 11.71 24.25 11 24 C10.23 22.32 10.23 22.32 9.75 20.12 C8.21 14.67 5.15 10.86 1.64 6.48 C0 4 0 4 0 0 Z " fill="#82A8EB" transform="translate(358,77)"/>
<path d="M0 0 C2.87 2.87 2.5 5.91 2.7 9.78 C2.75 10.55 2.8 11.32 2.84 12.11 C2.94 13.74 3.03 15.37 3.12 16.99 C3.25 19.49 3.4 21.99 3.56 24.48 C3.65 26.06 3.74 27.64 3.83 29.22 C3.88 29.97 3.92 30.72 3.97 31.49 C4.06 33.32 4.04 35.16 4 37 C2 39 2 39 -1.26 39.23 C-2.64 39.23 -4.03 39.22 -5.41 39.2 C-6.14 39.19 -6.87 39.19 -7.63 39.19 C-9.96 39.18 -12.29 39.15 -14.62 39.12 C-16.21 39.11 -17.79 39.11 -19.37 39.1 C-23.24 39.08 -27.12 39.04 -31 39 C-31 38.67 -31 38.34 -31 38 C-20.44 38 -9.88 38 1 38 C0.83 35.07 0.67 32.14 0.5 29.12 C-0.02 19.41 -0.11 9.73 0 0 Z " fill="#306EDA" transform="translate(299,246)"/>
<path d="M0 0 C4.88 1.88 4.88 1.88 6 3 C8 3.04 10 3.04 12 3 C12 3.66 12 4.32 12 5 C13.32 5 14.64 5 16 5 C16.12 5.58 16.25 6.15 16.38 6.75 C17.51 10.83 18.41 12.6 22 15 C21.67 15.66 21.34 16.32 21 17 C12.21 13.66 5.42 7.7 0 0 Z " fill="#447EE4" transform="translate(70,351)"/>
<path d="M0 0 C-0.12 4.41 -0.24 8.82 -0.37 13.23 C-0.42 14.73 -0.46 16.23 -0.5 17.72 C-0.56 19.89 -0.62 22.05 -0.68 24.22 C-0.72 25.52 -0.76 26.82 -0.79 28.15 C-1.01 32.15 -1.46 36.03 -2 40 C-2.33 40 -2.66 40 -3 40 C-3.03 35.88 -3.05 31.75 -3.06 27.62 C-3.07 26.45 -3.08 25.27 -3.09 24.06 C-3.09 22.94 -3.09 21.82 -3.1 20.66 C-3.1 19.63 -3.11 18.59 -3.11 17.52 C-3 15 -3 15 -2 13 C-2.66 13 -3.32 13 -4 13 C-4.66 9.7 -5.32 6.4 -6 3 C-5.34 3 -4.68 3 -4 3 C-4 2.34 -4 1.68 -4 1 C-2 0 -2 0 0 0 Z " fill="#145CDD" transform="translate(110,115)"/>
<path d="M0 0 C0.33 0.66 0.66 1.32 1 2 C2.65 1.67 4.3 1.34 6 1 C6 6.28 6 11.56 6 17 C6.66 17 7.32 17 8 17 C8 18.32 8 19.64 8 21 C8.66 21 9.32 21 10 21 C11.33 25.67 12.67 30.33 14 35 C10.59 31.89 9.23 28.22 7.56 24 C7.26 23.24 6.95 22.48 6.64 21.7 C5.75 19.47 4.87 17.24 4 15 C3.56 13.87 3.11 12.74 2.66 11.57 C1.07 7.4 0 4.52 0 0 Z " fill="#1A5BD8" transform="translate(9,256)"/>
<path d="M0 0 C0.33 0 0.66 0 1 0 C2.05 11.35 2.1 22.61 2 34 C-3.18 34.07 -8.36 34.13 -13.53 34.16 C-15.29 34.18 -17.05 34.2 -18.81 34.23 C-21.35 34.26 -23.88 34.28 -26.42 34.29 C-27.2 34.31 -27.99 34.32 -28.79 34.34 C-33.39 34.34 -36.3 33.79 -40 31 C-38.68 30.34 -37.36 29.68 -36 29 C-36 29.66 -36 30.32 -36 31 C-32.4 32.2 -29.03 32.23 -25.27 32.32 C-24.52 32.34 -23.77 32.36 -23 32.38 C-20.6 32.44 -18.21 32.5 -15.81 32.56 C-14.19 32.61 -12.56 32.65 -10.94 32.69 C-6.96 32.8 -2.98 32.9 1 33 C0.93 31.96 0.86 30.91 0.78 29.83 C0.29 22.38 -0.16 14.97 -0.06 7.5 C-0.06 6.76 -0.05 6.02 -0.05 5.26 C-0.04 3.51 -0.02 1.75 0 0 Z " fill="#CDE7FC" transform="translate(298,250)"/>
<path d="M0 0 C0.33 0.99 0.66 1.98 1 3 C0.44 3.68 -0.11 4.36 -0.69 5.06 C-3.8 9.02 -5.29 13.31 -7 18 C-7.99 18 -8.98 18 -10 18 C-10.33 19.65 -10.66 21.3 -11 23 C-12.32 23.33 -13.64 23.66 -15 24 C-14.43 19.47 -12.65 16.35 -10.25 12.5 C-9.57 11.4 -8.9 10.29 -8.2 9.16 C-6.04 6.06 -3.75 3.58 -1 1 C-0.67 0.67 -0.34 0.34 0 0 Z " fill="#6292E3" transform="translate(37,84)"/>
<path d="M0 0 C16.17 0 32.34 0 49 0 C49.5 11.88 49.5 11.88 50 24 C49.34 23.67 48.68 23.34 48 23 C48 15.74 48 8.48 48 1 C41.5 1.12 35.01 1.24 28.51 1.37 C26.3 1.42 24.09 1.46 21.88 1.5 C18.7 1.56 15.53 1.62 12.36 1.68 C11.36 1.7 10.37 1.72 9.35 1.73 C8.43 1.75 7.51 1.77 6.56 1.79 C5.35 1.82 5.35 1.82 4.11 1.84 C1.81 1.93 1.81 1.93 -1 3 C-0.67 2.01 -0.34 1.02 0 0 Z " fill="#D1E9FD" transform="translate(239,116)"/>
<path d="M0 0 C0.66 0.33 1.32 0.66 2 1 C-4.57 4.58 -10.87 4.55 -18.25 4.69 C-19.43 4.72 -20.62 4.76 -21.84 4.79 C-34.07 5.13 -34.07 5.13 -39 3 C-39 2.67 -39 2.34 -39 2 C-37.39 1.96 -37.39 1.96 -35.74 1.92 C-31.76 1.83 -27.77 1.73 -23.78 1.63 C-22.06 1.58 -20.33 1.54 -18.61 1.5 C-16.13 1.44 -13.65 1.38 -11.17 1.32 C-10.4 1.3 -9.62 1.28 -8.83 1.27 C-5.65 1.18 -3.04 1.01 0 0 Z " fill="#2B6CD9" transform="translate(136,282)"/>
<path d="M0 0 C2.55 2.55 3.48 5.39 4.75 8.69 C5.28 10.04 5.81 11.39 6.34 12.74 C6.61 13.44 6.88 14.14 7.16 14.86 C8 17 8.86 19.13 9.73 21.26 C10 21.94 10.28 22.62 10.56 23.32 C11.1 24.63 11.63 25.94 12.17 27.25 C14 31.78 14 31.78 14 34 C13.01 33.67 12.02 33.34 11 33 C9.81 30.44 9.81 30.44 9 28 C8.67 28 8.34 28 8 28 C7.67 25.03 7.34 22.06 7 19 C6.01 18.67 5.02 18.34 4 18 C3.88 16.87 3.75 15.73 3.62 14.56 C3.42 13.39 3.21 12.21 3 11 C2.34 10.67 1.68 10.34 1 10 C0.59 7.71 0.59 7.71 0.38 4.94 C0.3 4.02 0.23 3.1 0.15 2.15 C0.1 1.44 0.05 0.73 0 0 Z " fill="#2664D0" transform="translate(162,211)"/>
<path d="M0 0 C1.4 0.03 1.4 0.03 2.82 0.05 C3.84 0.09 3.84 0.09 4.88 0.12 C4.88 0.79 4.88 1.45 4.88 2.12 C3.2 2.29 3.2 2.29 1.5 2.46 C-10.91 3.73 -23.25 5.15 -35.12 9.12 C-38 9.25 -38 9.25 -40.12 9.12 C-37.33 7.26 -35.77 6.65 -32.59 5.91 C-31.25 5.59 -31.25 5.59 -29.88 5.27 C-28.95 5.06 -28.02 4.84 -27.06 4.62 C-26.16 4.41 -25.25 4.2 -24.32 3.98 C-21.59 3.34 -18.86 2.73 -16.12 2.12 C-15.23 1.93 -14.34 1.73 -13.43 1.53 C-8.89 0.57 -4.66 -0.12 0 0 Z " fill="#AFCCF2" transform="translate(179.125,-0.125)"/>
<path d="M0 0 C2 0 2 0 3.62 1.5 C4.08 2 4.53 2.49 5 3 C5.33 2.34 5.66 1.68 6 1 C11.94 1 17.88 1 24 1 C24 1.33 24 1.66 24 2 C18.39 2 12.78 2 7 2 C6.34 3.98 5.68 5.96 5 8 C3.99 10.14 2.95 12.27 1.88 14.38 C1.34 15.43 0.8 16.49 0.24 17.59 C-0.17 18.38 -0.58 19.18 -1 20 C-2.11 16.67 -1.85 15.57 -1.06 12.25 C-0.14 8.03 0.19 4.31 0 0 Z " fill="#145ADA" transform="translate(232,113)"/>
<path d="M0 0 C0.33 0.66 0.66 1.32 1 2 C3.02 2.65 3.02 2.65 5 3 C5.12 3.91 5.25 4.81 5.38 5.75 C5.83 8.9 5.83 8.9 7.06 11.12 C8 13 8 13 8 17 C8.66 17 9.32 17 10 17 C10.98 19.39 11.96 21.79 12.94 24.19 C13.22 24.86 13.49 25.53 13.78 26.23 C15.23 29.8 16.41 33.16 17 37 C14.73 34.16 13.14 31.4 11.66 28.08 C11.24 27.13 10.81 26.19 10.38 25.22 C9.94 24.24 9.51 23.26 9.06 22.25 C8.2 20.32 7.34 18.38 6.47 16.45 C6.06 15.53 5.65 14.6 5.22 13.65 C4.1 11.22 2.91 8.85 1.68 6.48 C0 3 0 3 0 0 Z " fill="#215BCF" transform="translate(169,134)"/>
<path d="M0 0 C0.9 3.22 0.81 4.78 0 8 C-0.09 10.67 -0.04 13.32 0 16 C-1.65 15.67 -3.3 15.34 -5 15 C-5.19 15.64 -5.39 16.28 -5.59 16.93 C-5.85 17.76 -6.11 18.59 -6.38 19.44 C-6.76 20.67 -6.76 20.67 -7.15 21.93 C-8 24 -8 24 -10 25 C-7.81 16.13 -3.98 8.17 0 0 Z " fill="#235FD8" transform="translate(22,108)"/>
<path d="M0 0 C0.8 2.24 1.1 3.61 0.5 5.94 C-1.42 8.58 -3.7 10.02 -6.44 11.75 C-8.31 13.01 -8.31 13.01 -9 16 C-9.66 16 -10.32 16 -11 16 C-11.33 17.98 -11.66 19.96 -12 22 C-13.32 21.67 -14.64 21.34 -16 21 C-14.64 18.05 -13.06 15.66 -11 13.14 C-10.42 12.44 -9.84 11.74 -9.25 11.01 C-8.35 9.92 -8.35 9.92 -7.44 8.81 C-6.83 8.08 -6.23 7.34 -5.61 6.58 C-1.21 1.21 -1.21 1.21 0 0 Z " fill="#1E5DD3" transform="translate(54,63)"/>
<path d="M0 0 C0.33 0 0.66 0 1 0 C1.25 3.06 1.48 6.12 1.69 9.19 C1.76 10.05 1.83 10.92 1.91 11.81 C2.24 16.9 2.15 19.76 -1 24 C-1.61 25.59 -2.18 27.19 -2.69 28.81 C-2.94 29.6 -3.19 30.39 -3.45 31.21 C-3.63 31.8 -3.81 32.39 -4 33 C-6.47 33.5 -6.47 33.5 -9 34 C-8.66 33.49 -8.32 32.98 -7.98 32.46 C-7.53 31.77 -7.08 31.08 -6.62 30.38 C-6.18 29.7 -5.74 29.03 -5.29 28.34 C-1.99 22.35 -1.46 16.31 -0.88 9.62 C-0.75 8.23 -0.75 8.23 -0.61 6.82 C-0.4 4.54 -0.2 2.27 0 0 Z " fill="#0955DA" transform="translate(147,248)"/>
<path d="M0 0 C1.32 0.33 2.64 0.66 4 1 C3.67 10.57 3.34 20.14 3 30 C2.67 30 2.34 30 2 30 C1.66 26.5 1.33 23 1 19.5 C0.9 18.52 0.81 17.54 0.71 16.52 C0.19 10.99 -0.11 5.56 0 0 Z " fill="#2361CD" transform="translate(296,220)"/>
<path d="M0 0 C0.33 0 0.66 0 1 0 C1.34 5.54 0.31 9 -2 14 C-2.19 14.95 -2.37 15.9 -2.56 16.88 C-2.71 17.58 -2.85 18.28 -3 19 C-3.66 19.33 -4.32 19.66 -5 20 C-5.6 22.05 -5.95 24.09 -6.34 26.19 C-6.56 26.79 -6.78 27.38 -7 28 C-7.99 28.33 -8.98 28.66 -10 29 C-8.17 22.18 -5.77 15.69 -3.07 9.18 C-1.82 6.15 -0.66 3.21 0 0 Z " fill="#275FC9" transform="translate(247,178)"/>
<path d="M0 0 C0.66 0 1.32 0 2 0 C2.33 1.65 2.66 3.3 3 5 C3.66 5 4.32 5 5 5 C4.99 5.93 4.98 6.86 4.96 7.82 C4.88 16.96 4.88 16.96 6 26 C1.16 18.75 -0.47 8.63 0 0 Z " fill="#2063D3" transform="translate(3,230)"/>
<path d="M0 0 C6.19 5.63 7.74 14.05 9 22 C8.34 22.33 7.68 22.66 7 23 C7 22.01 7 21.02 7 20 C6.34 20 5.68 20 5 20 C5 18.35 5 16.7 5 15 C4.01 14.67 3.02 14.34 2 14 C1.94 13.32 1.88 12.65 1.82 11.95 C1.73 11.06 1.65 10.17 1.56 9.25 C1.48 8.37 1.4 7.49 1.32 6.58 C1.04 4.31 0.61 2.2 0 0 Z " fill="#6696E2" transform="translate(378,108)"/>
<path d="M0 0 C5.28 0.33 10.56 0.66 16 1 C16 1.33 16 1.66 16 2 C7.4 4.13 -1.18 4.58 -10 5 C-6.66 2.29 -4.3 1.49 0 1 C0 0.67 0 0.34 0 0 Z " fill="#195CD6" transform="translate(224,394)"/>
<path d="M0 0 C4 6 4 6 4 10 C16.21 10 28.42 10 41 10 C41 10.33 41 10.66 41 11 C28.46 11 15.92 11 3 11 C3 10.34 3 9.68 3 9 C2.34 9 1.68 9 1 9 C0.67 6.03 0.34 3.06 0 0 Z " fill="#3C70CA" transform="translate(176,245)"/>
<path d="M0 0 C0.66 0 1.32 0 2 0 C2 0.99 2 1.98 2 3 C2.6 3.04 3.2 3.08 3.81 3.12 C6 4 6 4 7.75 6.94 C9 10 9 10 9 12 C8.34 12 7.68 12 7 12 C6.34 11.34 5.68 10.68 5 10 C4.01 10.5 4.01 10.5 3 11 C2.67 10.01 2.34 9.02 2 8 C1.01 7.67 0.02 7.34 -1 7 C-1.04 5 -1.04 3 -1 1 C-0.67 0.67 -0.34 0.34 0 0 Z " fill="#0459E8" transform="translate(371,102)"/>
<path d="M0 0 C3.62 1.34 6.7 2.98 9.94 5.06 C13.64 7.34 16.57 8.77 21 9 C21 8.34 21 7.68 21 7 C21.66 7 22.32 7 23 7 C22.92 7.76 22.84 8.53 22.75 9.31 C22.71 12.15 22.71 12.15 25 13.81 C25.66 14.2 26.32 14.6 27 15 C23.52 14.43 20.8 13.56 17.71 11.86 C16.94 11.43 16.16 11 15.36 10.55 C14.56 10.1 13.76 9.65 12.94 9.19 C12.14 8.75 11.33 8.31 10.51 7.86 C6.49 5.61 3.04 3.54 0 0 Z " fill="#D4EBFE" transform="translate(89,367)"/>
<path d="M0 0 C0.33 0 0.66 0 1 0 C1 3.96 1 7.92 1 12 C1.99 12 2.98 12 4 12 C4.06 12.65 4.12 13.3 4.18 13.98 C4.64 18.69 5.14 23.34 6 28 C1.81 24.18 0.24 19.66 -0.13 14.02 C-0.26 9.34 -0.15 4.67 0 0 Z " fill="#D1E9FB" transform="translate(252,252)"/>
<path d="M0 0 C0.66 0 1.32 0 2 0 C4 3 4 3 4 8 C15.88 8 27.76 8 40 8 C40 8.33 40 8.66 40 9 C27.79 9 15.58 9 3 9 C2.01 6.03 1.02 3.06 0 0 Z " fill="#C8E8FF" transform="translate(177,246)"/>
<path d="M0 0 C0.66 0.33 1.32 0.66 2 1 C0.28 2.92 -1.45 4.84 -3.19 6.75 C-3.67 7.29 -4.15 7.83 -4.65 8.38 C-7.56 11.59 -10.53 14.38 -14 17 C-14 15.68 -14 14.36 -14 13 C-13.01 12.67 -12.02 12.34 -11 12 C-11 10.68 -11 9.36 -11 8 C-9.35 8 -7.7 8 -6 8 C-6 7.01 -6 6.02 -6 5 C-5.34 4.67 -4.68 4.34 -4 4 C-3.67 3.01 -3.34 2.02 -3 1 C-2.01 0.67 -1.02 0.34 0 0 Z " fill="#1E5FD1" transform="translate(351,328)"/>
<path d="M0 0 C1.31 4.25 0.33 6.59 -1.25 10.75 C-1.48 11.37 -1.72 11.99 -1.96 12.63 C-2.64 14.42 -3.32 16.21 -4 18 C-4.54 19.6 -5.08 21.21 -5.62 22.81 C-6.31 24.39 -6.31 24.39 -7 26 C-7.99 26.33 -8.98 26.66 -10 27 C-7.98 20.73 -5.73 14.57 -3.31 8.44 C-2.83 7.21 -2.83 7.21 -2.34 5.96 C-1.56 3.97 -0.78 1.99 0 0 Z " fill="#2964D3" transform="translate(234,212)"/>
<path d="M0 0 C0.33 0 0.66 0 1 0 C1.66 23.69 1.66 23.69 -3 33 C-3 29.04 -3 25.08 -3 21 C-2.34 21 -1.68 21 -1 21 C-1.01 20.24 -1.02 19.48 -1.04 18.69 C-1.09 12.36 -0.84 6.27 0 0 Z " fill="#1D5DC9" transform="translate(398,207)"/>
<path d="M0 0 C1.8 2.7 2.93 5.07 4.12 8.06 C4.48 8.94 4.83 9.82 5.2 10.72 C6 13 6 13 6 15 C4.35 15.66 2.7 16.32 1 17 C0 16 0 16 -0.1 12.4 C-0.09 10.91 -0.08 9.43 -0.06 7.94 C-0.06 7.18 -0.05 6.42 -0.05 5.64 C-0.04 3.76 -0.02 1.88 0 0 Z " fill="#1A5DDC" transform="translate(151,183)"/>
<path d="M0 0 C6.99 5.05 9.65 10.98 12 19 C11.34 19 10.68 19 10 19 C8.63 16.99 8.63 16.99 7.12 14.31 C5.42 11.34 3.82 8.78 1.62 6.12 C0 4 0 4 0 0 Z " fill="#6A98E2" transform="translate(358,77)"/>
<path d="M0 0 C6.02 9.03 4.21 22.55 4 33 C3.67 33 3.34 33 3 33 C2.67 26.4 2.34 19.8 2 13 C1.34 13 0.68 13 0 13 C0 8.71 0 4.42 0 0 Z " fill="#A8CAF4" transform="translate(396,159)"/>
<path d="M0 0 C0.97 3.38 0.93 4.98 -0.44 8.25 C-0.72 8.96 -1.01 9.66 -1.31 10.39 C-1.54 10.92 -1.76 11.45 -2 12 C-2.66 12 -3.32 12 -4 12 C-4.06 13.26 -4.12 14.52 -4.19 15.81 C-4.45 18.02 -4.45 18.02 -5 20 C-7.56 22 -7.56 22 -10 23 C-8.42 17.79 -6.22 13.02 -3.88 8.12 C-3.5 7.34 -3.13 6.56 -2.75 5.75 C-1.83 3.83 -0.92 1.92 0 0 Z " fill="#CDE8FC" transform="translate(218,157)"/>
<path d="M0 0 C0.99 0.5 0.99 0.5 2 1 C3.61 9.32 2.67 17.62 2 26 C1.67 26 1.34 26 1 26 C-0.16 20.52 -0.11 15.2 -0.06 9.62 C-0.06 8.7 -0.05 7.77 -0.05 6.82 C-0.04 4.54 -0.02 2.27 0 0 Z " fill="#3167C0" transform="translate(149,178)"/>
<path d="M0 0 C2.31 0.33 4.62 0.66 7 1 C4.02 3.98 0.37 5.1 -3.5 6.69 C-4.29 7.02 -5.07 7.35 -5.88 7.7 C-6.63 8.01 -7.38 8.32 -8.16 8.64 C-8.85 8.92 -9.53 9.21 -10.24 9.5 C-12 10 -12 10 -14 9 C-12.71 8.33 -11.42 7.66 -10.12 7 C-9.41 6.63 -8.69 6.26 -7.95 5.88 C-6 5 -6 5 -4 5 C-4 4.34 -4 3.68 -4 3 C-3.01 3 -2.02 3 -1 3 C-0.67 2.01 -0.34 1.02 0 0 Z " fill="#2660D3" transform="translate(276,380)"/>
<path d="M0 0 C0.66 0.33 1.32 0.66 2 1 C2.1 1.6 2.21 2.2 2.31 2.81 C3.34 6.07 5.2 7.13 8 9 C11.18 10.26 11.18 10.26 14 11 C13.01 11.5 13.01 11.5 12 12 C11.67 12.99 11.34 13.98 11 15 C5.82 10.67 1.27 6.23 -3 1 C-2.01 0.67 -1.02 0.34 0 0 Z " fill="#2362CF" transform="translate(58,336)"/>
<path d="M0 0 C0.33 0 0.66 0 1 0 C2.52 6.85 3.77 15.77 0 22 C-1.26 14.77 -1.91 7.17 0 0 Z " fill="#1B61DD" transform="translate(149,198)"/>
<path d="M0 0 C0.33 0 0.66 0 1 0 C1.02 0.56 1.04 1.12 1.06 1.69 C1.16 4.27 1.27 6.86 1.38 9.44 C1.41 10.32 1.44 11.19 1.47 12.1 C1.73 17.96 2.58 23.31 4 29 C3.01 29 2.02 29 1 29 C-0.01 25.66 -0.12 22.63 -0.1 19.14 C-0.09 18.03 -0.09 16.91 -0.09 15.76 C-0.08 14.6 -0.07 13.44 -0.06 12.25 C-0.06 11.08 -0.05 9.9 -0.05 8.69 C-0.04 5.79 -0.02 2.9 0 0 Z " fill="#2E63D0" transform="translate(251,248)"/>
<path d="M0 0 C2.72 1.72 5.44 3.45 8.15 5.18 C9.79 6.23 11.42 7.26 13.07 8.29 C14.41 9.14 15.71 10.06 17 11 C17 11.66 17 12.32 17 13 C17.99 13.33 18.98 13.66 20 14 C19.01 14.5 19.01 14.5 18 15 C17.34 14.67 16.68 14.34 16 14 C16 13.34 16 12.68 16 12 C14.35 11.67 12.7 11.34 11 11 C11 10.34 11 9.68 11 9 C10.34 9 9.68 9 9 9 C9 8.34 9 7.68 9 7 C6.03 6.51 6.03 6.51 3 6 C3 5.01 3 4.02 3 3 C2.01 2.67 1.02 2.34 0 2 C0 1.34 0 0.68 0 0 Z " fill="#275FD1" transform="translate(305,30)"/>
<path d="M0 0 C0.33 0.66 0.66 1.32 1 2 C-2.3 2.66 -5.6 3.32 -9 4 C-9 4.66 -9 5.32 -9 6 C-11.97 6 -14.94 6 -18 6 C-13.31 1.72 -6.32 -0.61 0 0 Z " fill="#7FA9E7" transform="translate(141,9)"/>
<path d="M0 0 C-1.31 4.23 -2.94 8.07 -5 12 C-5.33 12 -5.66 12 -6 12 C-6.33 8.7 -6.66 5.4 -7 2 C-4 0 -4 0 0 0 Z " fill="#165CD5" transform="translate(217,160)"/>
<path d="M0 0 C0.99 0 1.98 0 3 0 C1.48 5.4 -2.27 8.98 -6 13 C-7.1 9.71 -6.8 8.29 -6 5 C-5.67 5.66 -5.34 6.32 -5 7 C-4.34 7 -3.68 7 -3 7 C-2.67 5.68 -2.34 4.36 -2 3 C-1.34 3 -0.68 3 0 3 C0 2.01 0 1.02 0 0 Z " fill="#1C5CD6" transform="translate(361,313)"/>
<path d="M0 0 C0.66 0.33 1.32 0.66 2 1 C-0.64 6.28 -3.28 11.56 -6 17 C-6.33 17 -6.66 17 -7 17 C-7 14.36 -7 11.72 -7 9 C-5.68 8.34 -4.36 7.68 -3 7 C-3.06 6.22 -3.12 5.43 -3.19 4.62 C-3.13 3.76 -3.06 2.89 -3 2 C-2.01 1.34 -1.02 0.68 0 0 Z " fill="#1759D8" transform="translate(380,282)"/>
<path d="M0 0 C0.66 0 1.32 0 2 0 C2 0.66 2 1.32 2 2 C4.64 1.67 7.28 1.34 10 1 C9.01 2.49 9.01 2.49 8 4 C8 4.66 8 5.32 8 6 C8.99 6 9.98 6 11 6 C11.33 6.99 11.66 7.98 12 9 C7.22 7.36 3.21 4.73 -1 2 C-0.67 1.34 -0.34 0.68 0 0 Z " fill="#205FD6" transform="translate(94,367)"/>
<path d="M0 0 C2.96 1.12 3.89 1.81 5.5 4.62 C5.99 5.41 6.49 6.19 7 7 C8.32 7 9.64 7 11 7 C10.34 8.98 9.68 10.96 9 13 C5.41 9.61 2.54 6.24 0 2 C0 1.34 0 0.68 0 0 Z " fill="#215CD7" transform="translate(32,307)"/>
<path d="M0 0 C2.92 -0.05 5.83 -0.09 8.75 -0.12 C9.57 -0.14 10.4 -0.16 11.25 -0.18 C12.05 -0.18 12.85 -0.19 13.67 -0.2 C14.41 -0.21 15.14 -0.22 15.89 -0.23 C18 0 18 0 22 2 C14.08 2.5 14.08 2.5 6 3 C6 2.34 6 1.68 6 1 C4.02 1 2.04 1 0 1 C0 0.67 0 0.34 0 0 Z " fill="#155BDB" transform="translate(218,3)"/>
<path d="M0 0 C1.32 0.33 2.64 0.66 4 1 C2.88 2.98 1.75 4.96 0.62 6.94 C-0.31 8.59 -0.31 8.59 -1.27 10.28 C-3 13 -3 13 -5 14 C-4.67 12.02 -4.34 10.04 -4 8 C-3.34 8 -2.68 8 -2 8 C-1.34 5.36 -0.68 2.72 0 0 Z " fill="#205CD2" transform="translate(369,299)"/>
<path d="M0 0 C3.33 3.65 4.98 8.22 6 13 C5.67 13.99 5.34 14.98 5 16 C2 12.25 2 12.25 2 10 C1.34 10 0.68 10 0 10 C0.19 9.28 0.37 8.56 0.56 7.81 C1.02 4.87 0.74 2.86 0 0 Z " fill="#8BB2EB" transform="translate(385,123)"/>
<path d="M0 0 C5.09 3.56 9.23 7.05 13 12 C7.29 10.67 5.43 8.48 2 4 C1.34 3.67 0.68 3.34 0 3 C0 2.01 0 1.02 0 0 Z " fill="#205ECD" transform="translate(329,48)"/>
<path d="M0 0 C9.86 -0.39 9.86 -0.39 14 2 C14.99 3.49 14.99 3.49 16 5 C10.72 3.68 5.44 2.36 0 1 C0 0.67 0 0.34 0 0 Z " fill="#2363D0" transform="translate(140,390)"/>
<path d="M0 0 C0.66 0 1.32 0 2 0 C3.87 5.44 4.15 9.74 3.62 15.44 C3.57 16.17 3.51 16.9 3.45 17.65 C3.31 19.44 3.16 21.22 3 23 C2.67 23 2.34 23 2 23 C1.34 15.41 0.68 7.82 0 0 Z " fill="#B9D6F1" transform="translate(247,177)"/>
<path d="M0 0 C0 0.99 0 1.98 0 3 C-1.63 4.37 -3.3 5.71 -5 7 C-5.99 8.48 -5.99 8.48 -7 10 C-7.66 10 -8.32 10 -9 10 C-9 10.66 -9 11.32 -9 12 C-10.65 12.33 -12.3 12.66 -14 13 C-11.24 9.32 -8.38 6.5 -4.75 3.69 C-3.41 2.64 -3.41 2.64 -2.05 1.57 C-1.37 1.05 -0.7 0.54 0 0 Z " fill="#2A65CB" transform="translate(77,42)"/>
<path d="M0 0 C-2.1 1.17 -4.2 2.34 -6.31 3.5 C-6.91 3.83 -7.5 4.17 -8.12 4.51 C-10.96 6.07 -12.71 7 -16 7 C-16 6.34 -16 5.68 -16 5 C-15.03 4.71 -14.06 4.42 -13.06 4.12 C-9.89 3.36 -9.89 3.36 -9 1 C-3.64 -1.21 -3.64 -1.21 0 0 Z " fill="#2C65D5" transform="translate(299,374)"/>
<path d="M0 0 C0.66 0 1.32 0 2 0 C1.67 2.64 1.34 5.28 1 8 C0.34 8 -0.32 8 -1 8 C-1 8.66 -1 9.32 -1 10 C-1.66 10 -2.32 10 -3 10 C-3.33 8.02 -3.66 6.04 -4 4 C-3.34 4 -2.68 4 -2 4 C-1.34 2.68 -0.68 1.36 0 0 Z " fill="#4985E2" transform="translate(390,256)"/>
<path d="M0 0 C0 0.99 0 1.98 0 3 C-0.58 2.98 -1.16 2.95 -1.76 2.93 C-6.69 2.82 -10.31 3.36 -15 5 C-17.17 4.56 -17.17 4.56 -19 4 C-16.96 3.32 -14.92 2.66 -12.88 2 C-11.74 1.63 -10.6 1.26 -9.43 0.88 C-6.12 0.03 -3.39 -0.17 0 0 Z " fill="#2161C9" transform="translate(160,5)"/>
<path d="M0 0 C0.66 0 1.32 0 2 0 C-0.89 9.59 -0.89 9.59 -4 13 C-4 10.36 -4 7.72 -4 5 C-3.34 4.67 -2.68 4.34 -2 4 C-0.87 1.98 -0.87 1.98 0 0 Z " fill="#1D5ACE" transform="translate(209,172)"/>
<path d="M0 0 C1.94 0.81 1.94 0.81 4 2 C4.33 2.99 4.66 3.98 5 5 C4.01 5.33 3.02 5.66 2 6 C0.79 8 0.79 8 0 10 C-1.24 6.42 -0.75 3.66 0 0 Z " fill="#1057E2" transform="translate(353,74)"/>
<path d="M0 0 C0.66 0.33 1.32 0.66 2 1 C1.67 1.66 1.34 2.32 1 3 C0.01 3 -0.98 3 -2 3 C-2.33 4.32 -2.66 5.64 -3 7 C-5.64 7.33 -8.28 7.66 -11 8 C-7.46 5.08 -3.84 2.5 0 0 Z " fill="#225ED3" transform="translate(104,24)"/>
<path d="M0 0 C-4.83 3.22 -10.2 4.36 -16 4 C-16 3.01 -16 2.02 -16 1 C-13.02 1.05 -13.02 1.05 -10.04 1.1 C-6.56 0.93 -3.6 -0.1 0 0 Z " fill="#1A5EC9" transform="translate(256,391)"/>
<path d="M0 0 C0.99 0 1.98 0 3 0 C4.81 4.02 6.34 7.61 7 12 C6.01 12.5 6.01 12.5 5 13 C4.35 11.4 3.71 9.79 3.06 8.19 C2.52 6.85 2.52 6.85 1.97 5.48 C1.26 3.67 0.61 1.84 0 0 Z " fill="#D5ECFC" transform="translate(161,208)"/>
<path d="M0 0 C0.33 0 0.66 0 1 0 C1 3.63 1 7.26 1 11 C0.34 10.34 -0.32 9.68 -1 9 C-1.99 9.33 -2.98 9.66 -4 10 C-2.89 6.51 -1.74 3.23 0 0 Z " fill="#DFF0FC" transform="translate(237,119)"/>
<path d="M0 0 C0.33 0 0.66 0 1 0 C1.32 5.26 0.67 8.45 -2 13 C-3.32 12.67 -4.64 12.34 -6 12 C-5.38 11.32 -4.76 10.64 -4.12 9.94 C-1.67 6.54 -0.95 4.04 0 0 Z " fill="#2F6CD3" transform="translate(144,269)"/>
<path d="M0 0 C5.48 1.55 10.11 4.16 15 7 C13.68 7.33 12.36 7.66 11 8 C11 7.34 11 6.68 11 6 C9.68 6 8.36 6 7 6 C7 5.34 7 4.68 7 4 C4.69 3.34 2.38 2.68 0 2 C0 1.34 0 0.68 0 0 Z " fill="#2E64D4" transform="translate(284,19)"/>
<path d="M0 0 C1.65 0 3.3 0 5 0 C5.69 1.75 5.69 1.75 6 4 C4.56 6.25 4.56 6.25 3 8 C0 2.25 0 2.25 0 0 Z " fill="#1259DD" transform="translate(23,291)"/>
<path d="M0 0 C0.66 0 1.32 0 2 0 C2.7 1.58 3.39 3.16 4.06 4.75 C4.45 5.63 4.83 6.51 5.22 7.42 C6.05 10.15 5.98 11.37 5 14 C4.16 12.23 3.33 10.46 2.5 8.69 C1.8 7.21 1.8 7.21 1.09 5.7 C0 3 0 3 0 0 Z " fill="#DBEDFD" transform="translate(167,221)"/>
<path d="M0 0 C0.33 0 0.66 0 1 0 C1.43 4.75 -0.02 7.78 -2 12 C-2.99 12 -3.98 12 -5 12 C-3.69 7.77 -2.06 3.93 0 0 Z " fill="#CAE3F7" transform="translate(224,145)"/>
<path d="M0 0 C0.33 0.66 0.66 1.32 1 2 C3.02 2.65 3.02 2.65 5 3 C5.33 5.31 5.66 7.62 6 10 C5.01 10 4.02 10 3 10 C0 3.38 0 3.38 0 0 Z " fill="#2563D8" transform="translate(169,134)"/>
<path d="M0 0 C1.06 1.81 1.06 1.81 2 4 C1.67 4.99 1.34 5.98 1 7 C-0.98 7 -2.96 7 -5 7 C-1.12 1.13 -1.12 1.13 0 0 Z " fill="#0B5ADE" transform="translate(81,39)"/>
<path d="M0 0 C0.99 0 1.98 0 3 0 C3 0.66 3 1.32 3 2 C6.47 1.5 6.47 1.5 10 1 C10 2.65 10 4.3 10 6 C6.56 5.19 6.56 5.19 3 4 C2.67 3.01 2.34 2.02 2 1 C1.34 0.67 0.68 0.34 0 0 Z " fill="#2361D6" transform="translate(125,383)"/>
<path d="M0 0 C0.66 0 1.32 0 2 0 C0.46 4.72 -1.08 9.42 -3 14 C-3.33 14 -3.66 14 -4 14 C-4.57 8.34 -2.71 4.77 0 0 Z " fill="#D6ECFE" transform="translate(245,180)"/>
<path d="M0 0 C1.12 3.3 0.9 5.05 -0.44 8.25 C-0.72 8.96 -1.01 9.66 -1.31 10.39 C-1.54 10.92 -1.76 11.45 -2 12 C-2.99 12 -3.98 12 -5 12 C-3.69 7.77 -2.06 3.93 0 0 Z " fill="#D2EAFC" transform="translate(232,129)"/>
<path d="M0 0 C0.66 0 1.32 0 2 0 C1.92 0.76 1.83 1.53 1.75 2.31 C1.71 5.15 1.71 5.15 4 6.81 C4.66 7.2 5.32 7.6 6 8 C2.63 7.45 0.92 6.95 -2 5 C-2 4.34 -2 3.68 -2 3 C-2.66 2.67 -3.32 2.34 -4 2 C-2.68 2 -1.36 2 0 2 C0 1.34 0 0.68 0 0 Z " fill="#7CA9EC" transform="translate(110,374)"/>
<path d="M0 0 C0.66 0.33 1.32 0.66 2 1 C-0.31 3.64 -2.62 6.28 -5 9 C-5.33 7.68 -5.66 6.36 -6 5 C-5.34 4.67 -4.68 4.34 -4 4 C-3.67 3.01 -3.34 2.02 -3 1 C-2.01 0.67 -1.02 0.34 0 0 Z " fill="#2565CD" transform="translate(351,328)"/>
<path d="M0 0 C0.99 0 1.98 0 3 0 C2.52 4.81 2.2 7.6 0 12 C0 8.04 0 4.08 0 0 Z " fill="#2F68D6" transform="translate(395,228)"/>
<path d="M0 0 C0.66 0 1.32 0 2 0 C2.33 2.31 2.66 4.62 3 7 C1.51 7.99 1.51 7.99 0 9 C-0.33 8.67 -0.66 8.34 -1 8 C-0.82 5.31 -0.38 2.67 0 0 Z " fill="#1659D9" transform="translate(236,207)"/>
<path d="M0 0 C2.31 0.33 4.62 0.66 7 1 C7 1.66 7 2.32 7 3 C6.34 3 5.68 3 5 3 C4.67 4.32 4.34 5.64 4 7 C4 6.34 4 5.68 4 5 C3.34 5 2.68 5 2 5 C1.34 3.35 0.68 1.7 0 0 Z " fill="#1158DE" transform="translate(166,129)"/>
<path d="M0 0 C5 6.36 5 6.36 5 11 C4.01 11.33 3.02 11.66 2 12 C2 9.69 2 7.38 2 5 C1.34 5 0.68 5 0 5 C0 3.35 0 1.7 0 0 Z " fill="#CCE3FA" transform="translate(160,117)"/>
<path d="M0 0 C0 0.99 0 1.98 0 3 C-0.93 3.15 -0.93 3.15 -1.88 3.31 C-4.37 3.88 -4.37 3.88 -6 7 C-8.62 7.19 -8.62 7.19 -11 7 C-9.34 5.66 -7.67 4.33 -6 3 C-5.28 2.42 -4.56 1.84 -3.81 1.25 C-2 0 -2 0 0 0 Z " fill="#275FD3" transform="translate(93,32)"/>
<path d="M0 0 C0.66 0 1.32 0 2 0 C1.34 4.39 -0.19 7.98 -2 12 C-3.12 8.7 -2.9 6.95 -1.56 3.75 C-1.28 3.04 -0.99 2.34 -0.69 1.61 C-0.46 1.08 -0.24 0.55 0 0 Z " fill="#CEE5FD" transform="translate(228,222)"/>
<path d="M0 0 C1.32 0.33 2.64 0.66 4 1 C4 2.98 4 4.96 4 7 C2.68 7.33 1.36 7.66 0 8 C0 5.36 0 2.72 0 0 Z " fill="#2566E4" transform="translate(296,220)"/>
<path d="M0 0 C1.11 3.32 1.19 5.68 0 9 C-2.56 10.81 -2.56 10.81 -5 12 C-3.69 7.77 -2.06 3.93 0 0 Z " fill="#C5DEFA" transform="translate(213,168)"/>
<path d="M0 0 C1.32 0.33 2.64 0.66 4 1 C3.67 2.32 3.34 3.64 3 5 C1.35 4.67 -0.3 4.34 -2 4 C-1.34 2.68 -0.68 1.36 0 0 Z " fill="#0259E1" transform="translate(281,20)"/>
<path d="M0 0 C2.97 0.99 5.94 1.98 9 3 C8.34 4.32 7.68 5.64 7 7 C6.67 6.34 6.34 5.68 6 5 C3.98 4.35 3.98 4.35 2 4 C2 3.34 2 2.68 2 2 C1.34 2 0.68 2 0 2 C0 1.34 0 0.68 0 0 Z " fill="#1F60D9" transform="translate(259,9)"/>
<path d="M0 0 C-0.64 0.29 -1.28 0.58 -1.94 0.88 C-4.15 1.83 -4.15 1.83 -5 4 C-6.65 4 -8.3 4 -10 4 C-10 3.01 -10 2.02 -10 1 C-3.71 -1.43 -3.71 -1.43 0 0 Z " fill="#0C58D9" transform="translate(170,4)"/>
<path d="M0 0 C1.32 0 2.64 0 4 0 C3.48 4.62 2.93 6.1 0 10 C0 6.7 0 3.4 0 0 Z " fill="#265DD0" transform="translate(384,266)"/>
<path d="M0 0 C0.96 3.05 1.02 5.09 0.25 8.19 C0.01 9.23 0.01 9.23 -0.23 10.29 C-0.61 11.14 -0.61 11.14 -1 12 C-1.99 12.33 -2.98 12.66 -4 13 C-3.52 11.4 -3.04 9.79 -2.56 8.19 C-2.3 7.29 -2.03 6.4 -1.75 5.48 C-1.2 3.65 -0.61 1.82 0 0 Z " fill="#2F69CE" transform="translate(241,194)"/>
<path d="M0 0 C5.61 0 11.22 0 17 0 C17 0.33 17 0.66 17 1 C15.95 1.06 14.9 1.12 13.82 1.18 C12.45 1.27 11.07 1.35 9.69 1.44 C8.65 1.5 8.65 1.5 7.6 1.56 C4.53 1.75 1.93 2.02 -1 3 C-0.67 2.01 -0.34 1.02 0 0 Z " fill="#D1EDFF" transform="translate(239,116)"/>
<path d="M0 0 C2.31 0 4.62 0 7 0 C2.25 4.88 2.25 4.88 0 6 C0 4.02 0 2.04 0 0 Z " fill="#2161D0" transform="translate(328,347)"/>
<path d="M0 0 C0.25 7.5 0.25 7.5 -2 12 C-2.33 8.37 -2.66 4.74 -3 1 C-1 0 -1 0 0 0 Z " fill="#0954D8" transform="translate(107,148)"/>
<path d="M0 0 C0.62 1.81 0.62 1.81 1 4 C0.01 5.48 0.01 5.48 -1 7 C-2.32 6.67 -3.64 6.34 -5 6 C-3.35 4.02 -1.7 2.04 0 0 Z " fill="#2563CE" transform="translate(54,63)"/>
<path d="M0 0 C0.33 0.66 0.66 1.32 1 2 C2.15 2.33 3.31 2.66 4.5 3 C5.65 3.33 6.81 3.66 8 4 C8.33 4.66 8.66 5.32 9 6 C8.3 5.86 7.6 5.71 6.88 5.56 C3.92 4.99 0.97 4.48 -2 4 C-2 3.34 -2 2.68 -2 2 C-1.34 2 -0.68 2 0 2 C0 1.34 0 0.68 0 0 Z " fill="#0D5BDA" transform="translate(320,42)"/>
<path d="M0 0 C0.95 2.17 1.14 3.56 0.4 5.82 C-0.36 7.57 -1.18 9.29 -2 11 C-2.66 11 -3.32 11 -4 11 C-3.52 9.54 -3.04 8.08 -2.56 6.62 C-2.3 5.81 -2.03 5 -1.75 4.16 C-1 2 -1 2 0 0 Z " fill="#396FD1" transform="translate(223,239)"/>
<path d="M0 0 C2.15 2.62 3.4 4.64 4 8 C3.34 8 2.68 8 2 8 C1.34 7.34 0.68 6.68 0 6 C-0.99 6.5 -0.99 6.5 -2 7 C-2 6.01 -2 5.02 -2 4 C-1.34 4 -0.68 4 0 4 C0 2.68 0 1.36 0 0 Z " fill="#2467DB" transform="translate(376,106)"/>
<path d="M0 0 C1.32 0 2.64 0 4 0 C4.33 2.64 4.66 5.28 5 8 C2.75 5.31 1.12 3.35 0 0 Z " fill="#1E5CD1" transform="translate(27,299)"/>
<path d="M0 0 C3 3.88 3 3.88 3 5 C-0.15 5.26 -1.62 5.25 -4.31 3.5 C-4.87 3 -5.43 2.51 -6 2 C-4.02 1.34 -2.04 0.68 0 0 Z " fill="#0A55E2" transform="translate(137,283)"/>
<path d="M0 0 C0.33 0.66 0.66 1.32 1 2 C1.66 2 2.32 2 3 2 C3 4.31 3 6.62 3 9 C0.87 6.41 -0.54 4.37 -1 1 C-0.67 0.67 -0.34 0.34 0 0 Z " fill="#1C59D4" transform="translate(190,177)"/>
<path d="M0 0 C1.98 0 3.96 0 6 0 C4.72 1.71 3.38 3.37 2 5 C1.34 5 0.68 5 0 5 C0 3.35 0 1.7 0 0 Z " fill="#1A5DCF" transform="translate(320,354)"/>
<path d="M0 0 C0.33 0.66 0.66 1.32 1 2 C2.64 2.72 4.31 3.39 6 4 C4.31 4.69 4.31 4.69 2 5 C-0.75 3.56 -0.75 3.56 -3 2 C-2.01 1.34 -1.02 0.68 0 0 Z " fill="#C3E4FB" transform="translate(261,279)"/>
<path d="M0 0 C1.21 0.03 1.21 0.03 2.44 0.06 C0.81 1.77 -0.86 3.44 -2.56 5.06 C-3.22 5.06 -3.88 5.06 -4.56 5.06 C-3.44 0.08 -3.44 0.08 0 0 Z " fill="#125DDA" transform="translate(50.5625,69.9375)"/>
<path d="M0 0 C2.65 2.58 4.94 4.92 7 8 C5.02 7.34 3.04 6.68 1 6 C0.67 4.02 0.34 2.04 0 0 Z " fill="#2A69CE" transform="translate(347,65)"/>
<path d="M0 0 C2.97 1.12 5.33 2.22 8 4 C7.67 4.99 7.34 5.98 7 7 C5.83 6.02 4.66 5.04 3.5 4.06 C2.85 3.52 2.2 2.97 1.53 2.41 C1.03 1.94 0.52 1.48 0 1 C0 0.67 0 0.34 0 0 Z " fill="#2664CF" transform="translate(70,351)"/>
<path d="M0 0 C0.66 0.33 1.32 0.66 2 1 C0.51 4.46 0.51 4.46 -1 8 C-1.33 8 -1.66 8 -2 8 C-2.33 6.02 -2.66 4.04 -3 2 C-2.01 1.34 -1.02 0.68 0 0 Z " fill="#2B63D9" transform="translate(380,282)"/>
<path d="M0 0 C2.57 2.57 2.54 4.48 3 8 C2.01 8.5 2.01 8.5 1 9 C0.64 7.69 0.29 6.38 -0.06 5.06 C-0.36 3.97 -0.36 3.97 -0.66 2.85 C-0.77 2.24 -0.88 1.63 -1 1 C-0.67 0.67 -0.34 0.34 0 0 Z " fill="#D4EAFC" transform="translate(154,185)"/>
</svg>
